<svg width="389" height="81" viewBox="0 0 389 81" fill="none" xmlns="http://www.w3.org/2000/svg">
<g clip-path="url(#clip0_179_95)">
<rect width="389" height="81" rx="30" fill="#561C24"/>
<path d="M120.45 34.15C123.283 34.3833 124.7 35.7667 124.7 38.3L124.8 38.95L124.7 46.75C124.7 47.65 125.217 48.8667 126.25 50.4V50.5C125.983 51.4667 125.5 51.95 124.8 51.95C122.733 51.0833 121.7 49.25 121.7 46.45V45.8L121.55 45.7L121.7 45.5V45.4L121.85 38.5C121.85 37.5333 121.433 37.05 120.6 37.05H120C118.333 37.7167 117.5 41.3667 117.5 48C117.5 50.3 116.917 51.45 115.75 51.45C114.85 51.45 114.383 50.8833 114.35 49.75V44.75C114.35 38.2833 114.917 35.05 116.05 35.05L116.55 34.9L117.6 35.05C118.5 34.45 119.45 34.15 120.45 34.15ZM132.317 33.05C133.651 33.0833 135.901 35.4167 139.067 40.05L139.167 40.9C139.167 41.8333 136.884 42.55 132.317 43.05L132.167 43.2V43.4C132.867 46.4 133.601 47.9 134.367 47.9H134.967C136.034 47.9 137.651 46.75 139.817 44.45H140.117C140.784 44.45 141.301 44.9333 141.667 45.9C141.667 46.7 140.267 48.0833 137.467 50.05C136.734 50.4833 135.851 50.8 134.817 51C132.117 51 130.234 48.4667 129.167 43.4C127.634 43.1667 126.867 42.5333 126.867 41.5C126.867 40.7667 127.434 40.2833 128.567 40.05V40.25L129.067 40.05V38.8C129.067 34.9667 130.151 33.05 132.317 33.05ZM132.617 36.65H132.167L131.967 38.5V40.05H132.167C134.034 39.9833 134.967 39.7833 134.967 39.45C134.101 38.15 133.317 37.2167 132.617 36.65ZM157.739 35.3C160.039 36.8333 161.189 39.2 161.189 42.4C161.189 46.7333 159.739 49.6833 156.839 51.25L154.939 51.55C153.805 51.55 152.605 51 151.339 49.9H150.989C149.955 51.2333 148.989 51.9 148.089 51.9C145.722 51.9 144.355 49.6667 143.989 45.2V42.5C144.222 38.2667 145.105 36.15 146.639 36.15C147.472 36.15 147.955 36.6667 148.089 37.7C147.322 39.0333 146.939 40.9 146.939 43.3V44.25C147.072 47.25 147.389 48.75 147.889 48.75C148.389 48.75 148.905 47.8833 149.439 46.15L149.339 42.7C149.339 40.4 149.889 39.25 150.989 39.25C152.255 39.25 152.889 40.5 152.889 43H153.089L152.589 46.15C153.155 47.8167 153.939 48.65 154.939 48.65H155.239C156.705 48.65 157.655 47.0833 158.089 43.95V41.15C158.089 40.0833 157.455 38.7667 156.189 37.2L155.989 36.75C155.989 36.05 156.572 35.5667 157.739 35.3ZM190.456 32.15C192.923 32.15 194.789 33.9833 196.056 37.65L196.256 38.7C196.256 42.2667 194.589 45.9167 191.256 49.65C189.923 50.8833 188.573 51.5 187.206 51.5C185.206 51.5 183.789 50.35 182.956 48.05C182.656 46.9833 182.506 46.05 182.506 45.25V44.65C182.506 39.3833 184.423 35.3833 188.256 32.65C188.923 32.3167 189.656 32.15 190.456 32.15ZM185.456 45.15C185.456 47.4167 186.039 48.55 187.206 48.55C189.639 48.55 191.656 45.4333 193.256 39.2V38.25C192.689 36.1833 191.639 35.15 190.106 35.15C189.506 35.15 189.206 35.5667 189.206 36.4C189.206 36.9667 188.539 37.4167 187.206 37.75C186.039 39.7167 185.456 42.1833 185.456 45.15ZM205.071 31.3C207.171 31.3 208.421 32.7667 208.821 35.7V36.15C208.821 39.3833 207.155 42.35 203.821 45.05C205.755 46.95 209.138 47.9 213.971 47.9C214.705 48.1333 215.071 48.65 215.071 49.45C215.071 50.35 214.488 50.8 213.321 50.8C210.055 50.8 206.621 49.9667 203.021 48.3V49.75C203.021 53.1833 202.288 54.9 200.821 54.9C199.788 54.9 199.271 52.9167 199.271 48.95V45.05L199.121 43.65L199.471 42.05L199.121 37.25V37.05C199.121 36.15 199.588 35.5333 200.521 35.2C201.821 32.6 203.338 31.3 205.071 31.3ZM202.571 42.25C203.538 42.25 204.621 40.5167 205.821 37.05V34.9L205.221 34.25H204.771C203.305 35.25 202.571 37.9167 202.571 42.25ZM228.483 23.55C229.05 23.55 229.567 24.0833 230.033 25.15L227.833 39.05V42.95C227.833 47.0167 228.467 49.05 229.733 49.05C230.567 49.45 230.983 49.9833 230.983 50.65C230.983 51.4167 230.317 51.8667 228.983 52C227.517 52 226.367 50.65 225.533 47.95H225.033C223.8 50.65 222.3 52 220.533 52C218.467 52 217.217 50.4333 216.783 47.3C216.783 43.6667 219.217 39.8167 224.083 35.75C225.05 35.75 225.533 34.4 225.533 31.7C226.267 26.2667 227.25 23.55 228.483 23.55ZM219.733 46.9V48.25L220.533 49.05H220.833C221.9 49.05 223.15 45.8333 224.583 39.4H224.283C221.25 42.4333 219.733 44.9333 219.733 46.9ZM237.249 33.05C238.582 33.0833 240.832 35.4167 243.999 40.05L244.099 40.9C244.099 41.8333 241.815 42.55 237.249 43.05L237.099 43.2V43.4C237.799 46.4 238.532 47.9 239.299 47.9H239.899C240.965 47.9 242.582 46.75 244.749 44.45H245.049C245.715 44.45 246.232 44.9333 246.599 45.9C246.599 46.7 245.199 48.0833 242.399 50.05C241.665 50.4833 240.782 50.8 239.749 51C237.049 51 235.165 48.4667 234.099 43.4C232.565 43.1667 231.799 42.5333 231.799 41.5C231.799 40.7667 232.365 40.2833 233.499 40.05V40.25L233.999 40.05V38.8C233.999 34.9667 235.082 33.05 237.249 33.05ZM237.549 36.65H237.099L236.899 38.5V40.05H237.099C238.965 39.9833 239.899 39.7833 239.899 39.45C239.032 38.15 238.249 37.2167 237.549 36.65ZM255.12 31.3C257.22 31.3 258.47 32.7667 258.87 35.7V36.15C258.87 39.3833 257.204 42.35 253.87 45.05C255.804 46.95 259.187 47.9 264.02 47.9C264.754 48.1333 265.12 48.65 265.12 49.45C265.12 50.35 264.537 50.8 263.37 50.8C260.104 50.8 256.67 49.9667 253.07 48.3V49.75C253.07 53.1833 252.337 54.9 250.87 54.9C249.837 54.9 249.32 52.9167 249.32 48.95V45.05L249.17 43.65L249.52 42.05L249.17 37.25V37.05C249.17 36.15 249.637 35.5333 250.57 35.2C251.87 32.6 253.387 31.3 255.12 31.3ZM252.62 42.25C253.587 42.25 254.67 40.5167 255.87 37.05V34.9L255.27 34.25H254.82C253.354 35.25 252.62 37.9167 252.62 42.25Z" fill="#C7B7A3"/>
<mask id="mask0_179_95" style="mask-type:luminance" maskUnits="userSpaceOnUse" x="39" y="20" width="47" height="43">
<path d="M81.25 21H43.75C41.6789 21 40 22.511 40 24.375V58.125C40 59.989 41.6789 61.5 43.75 61.5H81.25C83.3211 61.5 85 59.989 85 58.125V24.375C85 22.511 83.3211 21 81.25 21Z" fill="white" stroke="white" stroke-width="2" stroke-linejoin="round"/>
<path d="M62.5 32.25V50.25M52.5 41.25H72.5" stroke="black" stroke-width="2" stroke-linecap="round" stroke-linejoin="round"/>
</mask>
<g mask="url(#mask0_179_95)">
<path d="M32.5 14.25H92.5V68.25H32.5V14.25Z" fill="#E6E6E6"/>
</g>
</g>
<defs>
<clipPath id="clip0_179_95">
<rect width="389" height="81" rx="30" fill="white"/>
</clipPath>
</defs>
</svg>
