<svg width="66" height="29" viewBox="0 0 66 29" fill="none" xmlns="http://www.w3.org/2000/svg">
<g clip-path="url(#clip0_179_111)">
<rect width="66" height="29" rx="14.5" fill="#561C24"/>
<path d="M19.26 9.09C21.38 9.09 22.63 10.42 23.01 13.08C23.01 15.44 21.91 17.13 19.71 18.15C19.47 18.27 19.14 18.33 18.72 18.33H18.51L17.85 18.27V18.33L17.97 26.34C17.83 26.96 17.51 27.27 17.01 27.27C16.45 27.09 16.17 26.8 16.17 26.4L15.9 10.08C15.9 9.56 16.21 9.29 16.83 9.27L17.46 9.54C18.02 9.24 18.62 9.09 19.26 9.09ZM17.76 12.27L17.67 13.2L17.76 16.38L18.6 16.59C19.94 16.59 20.81 15.61 21.21 13.65V13.2C21.07 11.62 20.51 10.83 19.53 10.83H19.08C18.2 10.83 17.76 11.31 17.76 12.27ZM26.8777 6.18C28.1377 6.18 28.8877 7.06 29.1277 8.82V9.09C29.1277 11.03 28.1277 12.81 26.1277 14.43C27.2877 15.57 29.3177 16.14 32.2177 16.14C32.6577 16.28 32.8777 16.59 32.8777 17.07C32.8777 17.61 32.5277 17.88 31.8277 17.88C29.8677 17.88 27.8077 17.38 25.6477 16.38V17.25C25.6477 19.31 25.2077 20.34 24.3277 20.34C23.7077 20.34 23.3977 19.15 23.3977 16.77V14.43L23.3077 13.59L23.5177 12.63L23.3077 9.75V9.63C23.3077 9.09 23.5877 8.72 24.1477 8.52C24.9277 6.96 25.8377 6.18 26.8777 6.18ZM25.3777 12.75C25.9577 12.75 26.6077 11.71 27.3277 9.63V8.34L26.9677 7.95H26.6977C25.8177 8.55 25.3777 10.15 25.3777 12.75ZM35.0747 7.23C35.8747 7.25 37.2247 8.65 39.1247 11.43L39.1847 11.94C39.1847 12.5 37.8147 12.93 35.0747 13.23L34.9847 13.32V13.44C35.4047 15.24 35.8447 16.14 36.3047 16.14H36.6647C37.3047 16.14 38.2747 15.45 39.5747 14.07H39.7547C40.1547 14.07 40.4647 14.36 40.6847 14.94C40.6847 15.42 39.8447 16.25 38.1647 17.43C37.7247 17.69 37.1947 17.88 36.5747 18C34.9547 18 33.8247 16.48 33.1847 13.44C32.2647 13.3 31.8047 12.92 31.8047 12.3C31.8047 11.86 32.1447 11.57 32.8247 11.43V11.55L33.1247 11.43V10.68C33.1247 8.38 33.7747 7.23 35.0747 7.23ZM35.2547 9.39H34.9847L34.8647 10.5V11.43H34.9847C36.1047 11.39 36.6647 11.27 36.6647 11.07C36.1447 10.29 35.6747 9.73 35.2547 9.39ZM40.7876 7.89C41.2476 7.89 41.7476 8.99 42.2876 11.19C43.0476 12.95 43.4776 13.88 43.5776 13.98C43.6776 13.98 44.0476 12.98 44.6876 10.98C45.3276 8.98 45.9376 7.98 46.5176 7.98C47.0576 8.18 47.3276 8.5 47.3276 8.94C45.6676 13.22 44.8376 16.05 44.8376 17.43L44.2676 18H43.6976C42.9776 17.48 41.7576 14.73 40.0376 9.75L39.7676 8.64C39.9076 8.14 40.2476 7.89 40.7876 7.89Z" fill="#E8D8C4"/>
</g>
<defs>
<clipPath id="clip0_179_111">
<rect width="66" height="29" rx="14.5" fill="white"/>
</clipPath>
</defs>
</svg>
