<svg width="389" height="81" viewBox="0 0 389 81" fill="none" xmlns="http://www.w3.org/2000/svg">
<g clip-path="url(#clip0_179_103)">
<rect width="389" height="81" rx="30" fill="#713C43"/>
<path fill-rule="evenodd" clip-rule="evenodd" d="M55.9647 16.3637C57.1676 15.4905 58.799 15 60.5 15C62.201 15 63.8324 15.4905 65.0353 16.3637L70.2699 20.1643C70.9542 19.4626 71.6192 18.76 72.265 18.0567C73.4902 16.72 74.6641 14.7359 77.3937 15.2854C78.0693 15.4213 78.6649 15.7142 79.0895 16.1192C79.5141 16.5242 79.7443 17.0191 79.7447 17.5281V31.5009C79.7454 34.8034 78.1351 37.9992 75.1994 40.5217C72.2636 43.0441 68.1923 44.7301 63.7075 45.2805V54.5957C66.7602 54.2196 69.6433 53.3151 72.1127 51.9588C74.5821 50.6024 76.5652 48.8341 77.894 46.8035C78.0747 46.5272 78.3286 46.2794 78.6412 46.0744C78.9538 45.8693 79.3189 45.7109 79.7158 45.6083C80.1127 45.5057 80.5335 45.4609 80.9542 45.4763C81.375 45.4918 81.7874 45.5673 82.168 45.6985C82.5485 45.8297 82.8898 46.014 83.1722 46.241C83.4547 46.4679 83.6728 46.733 83.8141 47.0212C83.9554 47.3094 84.0172 47.6149 83.9959 47.9204C83.9746 48.2259 83.8706 48.5253 83.6899 48.8016C81.8431 51.6307 79.0442 54.0762 75.5517 55.9123C72.0591 57.7484 67.9856 58.9159 63.7075 59.3069C63.7075 60.625 62.402 61.7777 60.5 61.7777C58.598 61.7777 57.2925 60.625 57.2925 59.3045C53.015 58.914 48.942 57.7472 45.4495 55.912C41.957 54.0767 39.1577 51.6321 37.3101 48.804C36.9451 48.2459 36.9005 47.6055 37.1859 47.0235C37.4713 46.4416 38.0634 45.9658 38.832 45.7008C39.6006 45.4359 40.4827 45.4034 41.2842 45.6107C42.0857 45.8179 42.741 46.2478 43.106 46.8058C44.4352 48.836 46.4185 50.6038 48.8878 51.9598C51.3572 53.3157 54.2401 54.2199 57.2925 54.5957V45.2805C52.8077 44.7301 48.7364 43.0441 45.8006 40.5217C42.8649 37.9992 41.2546 34.8034 41.2553 31.5009V17.5281C41.255 17.0187 41.4849 16.5233 41.9095 16.1178C42.3342 15.7123 42.9302 15.4191 43.6063 15.2831C46.3198 14.7382 47.5194 16.7293 48.7383 18.0544C49.3797 18.7593 50.0437 19.4626 50.7301 20.1643L55.9647 16.3637ZM54.7843 23.8066C56.1058 24.8242 58.4216 26.8433 60.5 26.8433C62.5784 26.8433 64.8942 24.8242 66.2157 23.8066L60.5 19.6566L54.7843 23.8066Z" fill="#E6E6E6"/>
<path d="M117.3 37.7C118.767 37.7 119.5 38.2833 119.5 39.45L119.05 40.4L118.75 49.55C118.75 53.6833 119.583 56.25 121.25 57.25L121.35 58C121.25 58.9667 120.8 59.45 120 59.45H119.7C117.2 57.75 115.95 55.15 115.95 51.65H115.6C114.267 55.3833 112.65 57.25 110.75 57.25C108.983 56.75 108.1 55.4333 108.1 53.3C108.1 48.6 109.983 43.9167 113.75 39.25C115.017 38.2167 116.2 37.7 117.3 37.7ZM111.25 51.3L111.05 52.7V53.65H111.55C114.05 47.4167 115.3 43.6167 115.3 42.25H115.1C113.167 44.4167 111.883 47.4333 111.25 51.3ZM123.3 40.15C124.066 40.15 124.9 41.9833 125.8 45.65C127.066 48.5833 127.783 50.1333 127.95 50.3C128.116 50.3 128.733 48.6333 129.8 45.3C130.866 41.9667 131.883 40.3 132.85 40.3C133.75 40.6333 134.2 41.1667 134.2 41.9C131.433 49.0333 130.05 53.75 130.05 56.05L129.1 57H128.15C126.95 56.1333 124.916 51.55 122.05 43.25L121.6 41.4C121.833 40.5667 122.4 40.15 123.3 40.15ZM145.669 37.7C147.136 37.7 147.869 38.2833 147.869 39.45L147.419 40.4L147.119 49.55C147.119 53.6833 147.952 56.25 149.619 57.25L149.719 58C149.619 58.9667 149.169 59.45 148.369 59.45H148.069C145.569 57.75 144.319 55.15 144.319 51.65H143.969C142.636 55.3833 141.019 57.25 139.119 57.25C137.352 56.75 136.469 55.4333 136.469 53.3C136.469 48.6 138.352 43.9167 142.119 39.25C143.386 38.2167 144.569 37.7 145.669 37.7ZM139.619 51.3L139.419 52.7V53.65H139.919C142.419 47.4167 143.669 43.6167 143.669 42.25H143.469C141.536 44.4167 140.252 47.4333 139.619 51.3ZM151.519 30.95C152.785 31.2167 153.419 31.7833 153.419 32.65C153.085 33.5833 152.552 34.05 151.819 34.05C150.585 33.8167 149.969 33.2 149.969 32.2C150.302 31.3667 150.819 30.95 151.519 30.95ZM153.419 37.95C153.952 37.95 154.402 38.4333 154.769 39.4L154.319 42.95V45.3C154.319 48.0333 154.785 51.6167 155.719 56.05C155.385 56.6833 154.819 57 154.019 57C152.652 57 151.752 53 151.319 45V43.25C151.319 39.7167 152.019 37.95 153.419 37.95ZM161.142 29.45C162.075 29.7833 162.542 30.3 162.542 31L163.042 50.05V56.2C163.042 57.3333 162.558 57.9 161.592 57.9H160.942C160.342 57.5 160.042 57.0333 160.042 56.5V50.7L159.592 30.9C159.592 30.0667 160.108 29.5833 161.142 29.45ZM175.991 37.7C177.458 37.7 178.191 38.2833 178.191 39.45L177.741 40.4L177.441 49.55C177.441 53.6833 178.275 56.25 179.941 57.25L180.041 58C179.941 58.9667 179.491 59.45 178.691 59.45H178.391C175.891 57.75 174.641 55.15 174.641 51.65H174.291C172.958 55.3833 171.341 57.25 169.441 57.25C167.675 56.75 166.791 55.4333 166.791 53.3C166.791 48.6 168.675 43.9167 172.441 39.25C173.708 38.2167 174.891 37.7 175.991 37.7ZM169.941 51.3L169.741 52.7V53.65H170.241C172.741 47.4167 173.991 43.6167 173.991 42.25H173.791C171.858 44.4167 170.575 47.4333 169.941 51.3ZM181.641 33.25C183.374 33.25 184.491 36.65 184.991 43.45L185.291 45C186.824 41.8667 188.074 40.3 189.041 40.3C189.041 40.1667 189.391 40.0667 190.091 40H190.291C192.491 40 193.891 41.7167 194.491 45.15V45.3C194.491 48.2333 193.024 51.4667 190.091 55C188.858 56.3333 187.508 57 186.041 57C184.374 56.6333 183.541 55.8 183.541 54.5L181.041 36.55L180.291 34.7C180.291 34.1 180.741 33.6167 181.641 33.25ZM186.841 53.55H186.991C188.724 52.85 190.241 50.4667 191.541 46.4V44.5C191.241 43.4667 190.858 42.95 190.391 42.95H189.991C188.524 43.8167 187.474 47.35 186.841 53.55ZM199.863 29.45C200.796 29.7833 201.263 30.3 201.263 31L201.763 50.05V56.2C201.763 57.3333 201.279 57.9 200.313 57.9H199.663C199.063 57.5 198.763 57.0333 198.763 56.5V50.7L198.313 30.9C198.313 30.0667 198.829 29.5833 199.863 29.45ZM209.862 39.05C211.195 39.0833 213.445 41.4167 216.612 46.05L216.712 46.9C216.712 47.8333 214.429 48.55 209.862 49.05L209.712 49.2V49.4C210.412 52.4 211.145 53.9 211.912 53.9H212.512C213.579 53.9 215.195 52.75 217.362 50.45H217.662C218.329 50.45 218.845 50.9333 219.212 51.9C219.212 52.7 217.812 54.0833 215.012 56.05C214.279 56.4833 213.395 56.8 212.362 57C209.662 57 207.779 54.4667 206.712 49.4C205.179 49.1667 204.412 48.5333 204.412 47.5C204.412 46.7667 204.979 46.2833 206.112 46.05V46.25L206.612 46.05V44.8C206.612 40.9667 207.695 39.05 209.862 39.05ZM210.162 42.65H209.712L209.512 44.5V46.05H209.712C211.579 45.9833 212.512 45.7833 212.512 45.45C211.645 44.15 210.862 43.2167 210.162 42.65ZM247.781 34.5C249.348 34.5 250.431 36.1667 251.031 39.5V39.7C251.031 40.4667 250.515 40.9167 249.481 41.05C248.648 41.05 248.081 40.0167 247.781 37.95L247.581 37.8H246.981C246.248 38.8667 245.881 40.2667 245.881 42L246.031 44.5C247.365 44.5 248.815 44.15 250.381 43.45C251.015 43.45 251.598 43.9 252.131 44.8C252.131 46.1667 250.265 47.0667 246.531 47.5L247.781 55.65C247.781 56.35 247.198 56.8 246.031 57C244.998 57 244.481 55.4 244.481 52.2L243.531 47.95L240.281 48.45C239.581 48.45 239.165 47.9333 239.031 46.9C239.031 45.9 240.381 45.2667 243.081 45L242.881 41.9C243.415 36.9667 245.048 34.5 247.781 34.5ZM256.308 29.45C257.241 29.7833 257.708 30.3 257.708 31L258.208 50.05V56.2C258.208 57.3333 257.724 57.9 256.758 57.9H256.108C255.508 57.5 255.208 57.0333 255.208 56.5V50.7L254.758 30.9C254.758 30.0667 255.274 29.5833 256.308 29.45ZM269.807 38.15C272.274 38.15 274.141 39.9833 275.407 43.65L275.607 44.7C275.607 48.2667 273.941 51.9167 270.607 55.65C269.274 56.8833 267.924 57.5 266.557 57.5C264.557 57.5 263.141 56.35 262.307 54.05C262.007 52.9833 261.857 52.05 261.857 51.25V50.65C261.857 45.3833 263.774 41.3833 267.607 38.65C268.274 38.3167 269.007 38.15 269.807 38.15ZM264.807 51.15C264.807 53.4167 265.391 54.55 266.557 54.55C268.991 54.55 271.007 51.4333 272.607 45.2V44.25C272.041 42.1833 270.991 41.15 269.457 41.15C268.857 41.15 268.557 41.5667 268.557 42.4C268.557 42.9667 267.891 43.4167 266.557 43.75C265.391 45.7167 264.807 48.1833 264.807 51.15ZM291.973 41.3C294.273 42.8333 295.423 45.2 295.423 48.4C295.423 52.7333 293.973 55.6833 291.073 57.25L289.173 57.55C288.04 57.55 286.84 57 285.573 55.9H285.223C284.19 57.2333 283.223 57.9 282.323 57.9C279.956 57.9 278.59 55.6667 278.223 51.2V48.5C278.456 44.2667 279.34 42.15 280.873 42.15C281.706 42.15 282.19 42.6667 282.323 43.7C281.556 45.0333 281.173 46.9 281.173 49.3V50.25C281.306 53.25 281.623 54.75 282.123 54.75C282.623 54.75 283.14 53.8833 283.673 52.15L283.573 48.7C283.573 46.4 284.123 45.25 285.223 45.25C286.49 45.25 287.123 46.5 287.123 49H287.323L286.823 52.15C287.39 53.8167 288.173 54.65 289.173 54.65H289.473C290.94 54.65 291.89 53.0833 292.323 49.95V47.15C292.323 46.0833 291.69 44.7667 290.423 43.2L290.223 42.75C290.223 42.05 290.806 41.5667 291.973 41.3ZM302.343 39.05C303.676 39.0833 305.926 41.4167 309.093 46.05L309.193 46.9C309.193 47.8333 306.909 48.55 302.343 49.05L302.193 49.2V49.4C302.893 52.4 303.626 53.9 304.393 53.9H304.993C306.059 53.9 307.676 52.75 309.843 50.45H310.143C310.809 50.45 311.326 50.9333 311.693 51.9C311.693 52.7 310.293 54.0833 307.493 56.05C306.759 56.4833 305.876 56.8 304.843 57C302.143 57 300.259 54.4667 299.193 49.4C297.659 49.1667 296.893 48.5333 296.893 47.5C296.893 46.7667 297.459 46.2833 298.593 46.05V46.25L299.093 46.05V44.8C299.093 40.9667 300.176 39.05 302.343 39.05ZM302.643 42.65H302.193L301.993 44.5V46.05H302.193C304.059 45.9833 304.993 45.7833 304.993 45.45C304.126 44.15 303.343 43.2167 302.643 42.65ZM320.214 37.3C322.314 37.3 323.564 38.7667 323.964 41.7V42.15C323.964 45.3833 322.297 48.35 318.964 51.05C320.897 52.95 324.281 53.9 329.114 53.9C329.847 54.1333 330.214 54.65 330.214 55.45C330.214 56.35 329.631 56.8 328.464 56.8C325.197 56.8 321.764 55.9667 318.164 54.3V55.75C318.164 59.1833 317.431 60.9 315.964 60.9C314.931 60.9 314.414 58.9167 314.414 54.95V51.05L314.264 49.65L314.614 48.05L314.264 43.25V43.05C314.264 42.15 314.731 41.5333 315.664 41.2C316.964 38.6 318.481 37.3 320.214 37.3ZM317.714 48.25C318.681 48.25 319.764 46.5167 320.964 43.05V40.9L320.364 40.25H319.914C318.447 41.25 317.714 43.9167 317.714 48.25ZM341.926 36.75C342.826 36.75 343.442 38.2667 343.776 41.3C343.442 42.1333 342.892 42.55 342.126 42.55C341.592 42.45 341.059 41.8333 340.526 40.7L339.626 40.4C338.059 40.4 336.642 41.4333 335.376 43.5V43.95C335.376 44.45 337.726 45.2833 342.426 46.45C344.392 47.6167 345.376 49.0333 345.376 50.7C345.376 53.4333 343.176 55.7667 338.776 57.7L336.926 58C334.126 57.7 332.726 56.3 332.726 53.8V53.65C332.726 52.85 333.242 52.3833 334.276 52.25C335.076 52.25 335.609 53.0833 335.876 54.75L336.276 55.05H337.126C339.026 55.05 340.792 53.75 342.426 51.15V50.5C342.426 49.5 340.242 48.5667 335.876 47.7C333.576 46.7667 332.426 45.4667 332.426 43.8C332.426 41.6333 334.242 39.6 337.876 37.7C339.476 37.5 340.826 37.1833 341.926 36.75Z" fill="#C7B7A3"/>
</g>
<defs>
<clipPath id="clip0_179_103">
<rect width="389" height="81" rx="30" fill="white"/>
</clipPath>
</defs>
</svg>
