<svg width="389" height="81" viewBox="0 0 389 81" fill="none" xmlns="http://www.w3.org/2000/svg">
<g clip-path="url(#clip0_179_108)">
<rect width="389" height="81" rx="30" fill="#713C43"/>
<path d="M49.3383 69L48.2239 60.84C47.6202 60.6275 47.0519 60.3725 46.5188 60.075C45.9857 59.7775 45.4629 59.4587 44.9503 59.1187L36.6617 62.3062L29 50.1937L36.1741 45.2212C36.1277 44.9237 36.1045 44.6373 36.1045 44.3619V42.6406C36.1045 42.3635 36.1277 42.0762 36.1741 41.7787L29 36.8062L36.6617 24.6937L44.9503 27.8812C45.461 27.5412 45.995 27.2225 46.5522 26.925C47.1095 26.6275 47.6667 26.3725 48.2239 26.16L49.3383 18H64.6617L65.7761 26.16C66.3798 26.3725 66.9491 26.6275 67.484 26.925C68.0189 27.2225 68.5408 27.5412 69.0498 27.8812L77.3383 24.6937L85 36.8062L77.8259 41.7787C77.8723 42.0762 77.8955 42.3635 77.8955 42.6406V44.3593C77.8955 44.6364 77.8491 44.9237 77.7562 45.2212L84.9303 50.1937L77.2687 62.3062L69.0498 59.1187C68.539 59.4587 68.005 59.7775 67.4478 60.075C66.8906 60.3725 66.3333 60.6275 65.7761 60.84L64.6617 69H49.3383ZM57.1393 52.425C59.8325 52.425 62.131 51.5538 64.0348 49.8113C65.9386 48.0688 66.8906 45.965 66.8906 43.5C66.8906 41.035 65.9386 38.9312 64.0348 37.1887C62.131 35.4462 59.8325 34.575 57.1393 34.575C54.3997 34.575 52.0891 35.4462 50.2076 37.1887C48.326 38.9312 47.3862 41.035 47.3881 43.5C47.3899 45.965 48.3307 48.0688 50.2103 49.8113C52.09 51.5538 54.3997 52.425 57.1393 52.425Z" fill="#E6E6E6"/>
<path d="M117 36.75C117.9 36.75 118.517 38.2667 118.85 41.3C118.517 42.1333 117.967 42.55 117.2 42.55C116.667 42.45 116.133 41.8333 115.6 40.7L114.7 40.4C113.133 40.4 111.717 41.4333 110.45 43.5V43.95C110.45 44.45 112.8 45.2833 117.5 46.45C119.467 47.6167 120.45 49.0333 120.45 50.7C120.45 53.4333 118.25 55.7667 113.85 57.7L112 58C109.2 57.7 107.8 56.3 107.8 53.8V53.65C107.8 52.85 108.317 52.3833 109.35 52.25C110.15 52.25 110.683 53.0833 110.95 54.75L111.35 55.05H112.2C114.1 55.05 115.867 53.75 117.5 51.15V50.5C117.5 49.5 115.317 48.5667 110.95 47.7C108.65 46.7667 107.5 45.4667 107.5 43.8C107.5 41.6333 109.317 39.6 112.95 37.7C114.55 37.5 115.9 37.1833 117 36.75ZM126.782 39.05C128.115 39.0833 130.365 41.4167 133.532 46.05L133.632 46.9C133.632 47.8333 131.349 48.55 126.782 49.05L126.632 49.2V49.4C127.332 52.4 128.065 53.9 128.832 53.9H129.432C130.499 53.9 132.115 52.75 134.282 50.45H134.582C135.249 50.45 135.765 50.9333 136.132 51.9C136.132 52.7 134.732 54.0833 131.932 56.05C131.199 56.4833 130.315 56.8 129.282 57C126.582 57 124.699 54.4667 123.632 49.4C122.099 49.1667 121.332 48.5333 121.332 47.5C121.332 46.7667 121.899 46.2833 123.032 46.05V46.25L123.532 46.05V44.8C123.532 40.9667 124.615 39.05 126.782 39.05ZM127.082 42.65H126.632L126.432 44.5V46.05H126.632C128.499 45.9833 129.432 45.7833 129.432 45.45C128.565 44.15 127.782 43.2167 127.082 42.65ZM143.954 26.65C144.887 26.85 145.354 27.3167 145.354 28.05L145.054 30.25V30.9C145.054 32.3667 145.22 33.9167 145.554 35.55H145.654C149.52 34.3833 151.92 33.8 152.854 33.8C153.82 34.0667 154.304 34.55 154.304 35.25C154.304 36.3833 153.154 36.95 150.854 36.95L145.654 38.8C145.654 43.3 146.137 49.4167 147.104 57.15C146.904 58.05 146.42 58.5 145.654 58.5H145.554C144.387 58.5 143.804 57 143.804 54C143.37 51.7667 143.004 46.9167 142.704 39.45H141.804C138.67 39.25 137.104 38.5167 137.104 37.25C137.104 36.8833 137.454 36.4333 138.154 35.9H138.654L140.954 36.5H142.554L142.104 30.25C142.104 27.85 142.72 26.65 143.954 26.65ZM161.727 26.65C162.66 26.85 163.127 27.3167 163.127 28.05L162.827 30.25V30.9C162.827 32.3667 162.994 33.9167 163.327 35.55H163.427C167.294 34.3833 169.694 33.8 170.627 33.8C171.594 34.0667 172.077 34.55 172.077 35.25C172.077 36.3833 170.927 36.95 168.627 36.95L163.427 38.8C163.427 43.3 163.91 49.4167 164.877 57.15C164.677 58.05 164.194 58.5 163.427 58.5H163.327C162.16 58.5 161.577 57 161.577 54C161.144 51.7667 160.777 46.9167 160.477 39.45H159.577C156.444 39.25 154.877 38.5167 154.877 37.25C154.877 36.8833 155.227 36.4333 155.927 35.9H156.427L158.727 36.5H160.327L159.877 30.25C159.877 27.85 160.494 26.65 161.727 26.65ZM174.2 30.95C175.467 31.2167 176.1 31.7833 176.1 32.65C175.767 33.5833 175.234 34.05 174.5 34.05C173.267 33.8167 172.65 33.2 172.65 32.2C172.984 31.3667 173.5 30.95 174.2 30.95ZM176.1 37.95C176.634 37.95 177.084 38.4333 177.45 39.4L177 42.95V45.3C177 48.0333 177.467 51.6167 178.4 56.05C178.067 56.6833 177.5 57 176.7 57C175.334 57 174.434 53 174 45V43.25C174 39.7167 174.7 37.95 176.1 37.95ZM187.473 40.15C190.307 40.3833 191.723 41.7667 191.723 44.3L191.823 44.95L191.723 52.75C191.723 53.65 192.24 54.8667 193.273 56.4V56.5C193.007 57.4667 192.523 57.95 191.823 57.95C189.757 57.0833 188.723 55.25 188.723 52.45V51.8L188.573 51.7L188.723 51.5V51.4L188.873 44.5C188.873 43.5333 188.457 43.05 187.623 43.05H187.023C185.357 43.7167 184.523 47.3667 184.523 54C184.523 56.3 183.94 57.45 182.773 57.45C181.873 57.45 181.407 56.8833 181.373 55.75V50.75C181.373 44.2833 181.94 41.05 183.073 41.05L183.573 40.9L184.623 41.05C185.523 40.45 186.473 40.15 187.473 40.15ZM202.891 37.8C204.424 37.8 205.191 38.5333 205.191 40C205.391 40 205.491 40.25 205.491 40.75H205.691L205.491 42.2L205.691 52.3L205.391 60.3C208.391 60.3 210.407 62.5 211.441 66.9C211.441 67.8 210.824 68.3167 209.591 68.45C209.024 68.45 208.391 67.2 207.691 64.7C207.024 63.7333 206.257 63.25 205.391 63.25H205.191C204.124 70.35 203.191 73.9 202.391 73.9C201.424 75.6667 200.024 76.55 198.191 76.55C195.491 75.9167 194.141 74.5667 194.141 72.5V72.2C194.141 69.0667 196.374 65.6667 200.841 62L202.391 61.05L202.591 55.65V54.4H202.391C201.257 55.8333 200.174 56.55 199.141 56.55H198.841C196.541 56.55 195.224 54.7833 194.891 51.25V50.15C194.891 45.8833 196.457 42.1833 199.591 39.05C200.557 38.2167 201.657 37.8 202.891 37.8ZM197.891 49.5V51.9C198.024 53 198.274 53.55 198.641 53.55H199.141C200.074 53.55 201.224 50.1167 202.591 43.25V40.75C200.591 40.75 199.024 43.6667 197.891 49.5ZM197.091 72.3C197.224 73.1333 197.691 73.55 198.491 73.55C200.091 73.55 201.241 70.7 201.941 65H201.641C198.607 67.6333 197.091 70.0667 197.091 72.3ZM218.367 36.75C219.267 36.75 219.884 38.2667 220.217 41.3C219.884 42.1333 219.334 42.55 218.567 42.55C218.034 42.45 217.501 41.8333 216.967 40.7L216.067 40.4C214.501 40.4 213.084 41.4333 211.817 43.5V43.95C211.817 44.45 214.167 45.2833 218.867 46.45C220.834 47.6167 221.817 49.0333 221.817 50.7C221.817 53.4333 219.617 55.7667 215.217 57.7L213.367 58C210.567 57.7 209.167 56.3 209.167 53.8V53.65C209.167 52.85 209.684 52.3833 210.717 52.25C211.517 52.25 212.051 53.0833 212.317 54.75L212.717 55.05H213.567C215.467 55.05 217.234 53.75 218.867 51.15V50.5C218.867 49.5 216.684 48.5667 212.317 47.7C210.017 46.7667 208.867 45.4667 208.867 43.8C208.867 41.6333 210.684 39.6 214.317 37.7C215.917 37.5 217.267 37.1833 218.367 36.75Z" fill="#C7B7A3"/>
</g>
<defs>
<clipPath id="clip0_179_108">
<rect width="389" height="81" rx="30" fill="white"/>
</clipPath>
</defs>
</svg>
