<svg width="389" height="81" viewBox="0 0 389 81" fill="none" xmlns="http://www.w3.org/2000/svg">
<g clip-path="url(#clip0_179_91)">
<rect width="389" height="81" rx="30" fill="#713C43"/>
<path d="M110.75 28.5C110.983 27.6667 111.517 27.25 112.35 27.25C113.183 27.25 113.733 28.0833 114 29.75H114.2L116.5 29.25C117.567 29.25 118.6 30.25 119.6 32.25H119.8C121.267 29.95 122.767 28.8 124.3 28.8C127.567 29.4 129.2 31.5333 129.2 35.2L129.3 36.95L128.85 47.05V48C128.85 48.8333 128.333 49.3167 127.3 49.45C126.267 49.45 125.75 48.2333 125.75 45.8L126.35 36.75C126.35 33.4167 125.567 31.75 124 31.75C123.1 31.75 122.017 33.9333 120.75 38.3C120.117 43.3 119.6 45.8 119.2 45.8C118.633 45.8 118.35 45.9167 118.35 46.15C117.317 46.0167 116.8 45.4833 116.8 44.55L117.45 38.5C117.35 34.3333 116.933 32.25 116.2 32.25H116.05C115.217 32.8833 114.8 34.1333 114.8 36V38.65L114.6 46.3C114.367 47.1333 113.85 47.55 113.05 47.55C112.35 47.55 111.9 46.9667 111.7 45.8L111.5 39.9L111.8 35.05C111.6 32.55 111.25 30.3667 110.75 28.5ZM133.669 31C134.836 31 135.636 33.5667 136.069 38.7C136.636 41.0667 137.052 42.25 137.319 42.25H137.619C138.452 40.15 138.869 38.0667 138.869 36L138.569 32.55C138.936 31.65 139.452 31.2 140.119 31.2C141.352 31.2 141.969 33.3833 141.969 37.75C142.702 42.2833 143.069 46.5 143.069 50.4V52.75C143.069 59.9167 141.036 64.75 136.969 67.25L135.869 67.45C133.969 67.45 132.202 65.6833 130.569 62.15L130.119 59.15V59C130.119 56.8 130.736 55.7 131.969 55.7L133.219 56.5L133.069 59.65C133.069 61.1833 133.852 62.7333 135.419 64.3H136.069C137.902 64.3 139.252 60.8 140.119 53.8L140.219 50.9C140.186 47.5333 140.052 45.3833 139.819 44.45C138.486 45.6167 137.436 46.2 136.669 46.2C134.969 46.2 133.452 41.65 132.119 32.55L131.969 32.45C131.969 31.6833 132.536 31.2 133.669 31ZM172.149 27.15C174.616 27.15 176.483 28.9833 177.749 32.65L177.949 33.7C177.949 37.2667 176.283 40.9167 172.949 44.65C171.616 45.8833 170.266 46.5 168.899 46.5C166.899 46.5 165.483 45.35 164.649 43.05C164.349 41.9833 164.199 41.05 164.199 40.25V39.65C164.199 34.3833 166.116 30.3833 169.949 27.65C170.616 27.3167 171.349 27.15 172.149 27.15ZM167.149 40.15C167.149 42.4167 167.733 43.55 168.899 43.55C171.333 43.55 173.349 40.4333 174.949 34.2V33.25C174.383 31.1833 173.333 30.15 171.799 30.15C171.199 30.15 170.899 30.5667 170.899 31.4C170.899 31.9667 170.233 32.4167 168.899 32.75C167.733 34.7167 167.149 37.1833 167.149 40.15ZM186.765 26.3C188.865 26.3 190.115 27.7667 190.515 30.7V31.15C190.515 34.3833 188.848 37.35 185.515 40.05C187.448 41.95 190.832 42.9 195.665 42.9C196.398 43.1333 196.765 43.65 196.765 44.45C196.765 45.35 196.182 45.8 195.015 45.8C191.748 45.8 188.315 44.9667 184.715 43.3V44.75C184.715 48.1833 183.982 49.9 182.515 49.9C181.482 49.9 180.965 47.9167 180.965 43.95V40.05L180.815 38.65L181.165 37.05L180.815 32.25V32.05C180.815 31.15 181.282 30.5333 182.215 30.2C183.515 27.6 185.032 26.3 186.765 26.3ZM184.265 37.25C185.232 37.25 186.315 35.5167 187.515 32.05V29.9L186.915 29.25H186.465C184.998 30.25 184.265 32.9167 184.265 37.25ZM210.177 18.55C210.743 18.55 211.26 19.0833 211.727 20.15L209.527 34.05V37.95C209.527 42.0167 210.16 44.05 211.427 44.05C212.26 44.45 212.677 44.9833 212.677 45.65C212.677 46.4167 212.01 46.8667 210.677 47C209.21 47 208.06 45.65 207.227 42.95H206.727C205.493 45.65 203.993 47 202.227 47C200.16 47 198.91 45.4333 198.477 42.3C198.477 38.6667 200.91 34.8167 205.777 30.75C206.743 30.75 207.227 29.4 207.227 26.7C207.96 21.2667 208.943 18.55 210.177 18.55ZM201.427 41.9V43.25L202.227 44.05H202.527C203.593 44.05 204.843 40.8333 206.277 34.4H205.977C202.943 37.4333 201.427 39.9333 201.427 41.9ZM218.942 28.05C220.276 28.0833 222.526 30.4167 225.692 35.05L225.792 35.9C225.792 36.8333 223.509 37.55 218.942 38.05L218.792 38.2V38.4C219.492 41.4 220.226 42.9 220.992 42.9H221.592C222.659 42.9 224.276 41.75 226.442 39.45H226.742C227.409 39.45 227.926 39.9333 228.292 40.9C228.292 41.7 226.892 43.0833 224.092 45.05C223.359 45.4833 222.476 45.8 221.442 46C218.742 46 216.859 43.4667 215.792 38.4C214.259 38.1667 213.492 37.5333 213.492 36.5C213.492 35.7667 214.059 35.2833 215.192 35.05V35.25L215.692 35.05V33.8C215.692 29.9667 216.776 28.05 218.942 28.05ZM219.242 31.65H218.792L218.592 33.5V35.05H218.792C220.659 34.9833 221.592 34.7833 221.592 34.45C220.726 33.15 219.942 32.2167 219.242 31.65ZM236.814 26.3C238.914 26.3 240.164 27.7667 240.564 30.7V31.15C240.564 34.3833 238.897 37.35 235.564 40.05C237.497 41.95 240.88 42.9 245.714 42.9C246.447 43.1333 246.814 43.65 246.814 44.45C246.814 45.35 246.23 45.8 245.064 45.8C241.797 45.8 238.364 44.9667 234.764 43.3V44.75C234.764 48.1833 234.03 49.9 232.564 49.9C231.53 49.9 231.014 47.9167 231.014 43.95V40.05L230.864 38.65L231.214 37.05L230.864 32.25V32.05C230.864 31.15 231.33 30.5333 232.264 30.2C233.564 27.6 235.08 26.3 236.814 26.3ZM234.314 37.25C235.28 37.25 236.364 35.5167 237.564 32.05V29.9L236.964 29.25H236.514C235.047 30.25 234.314 32.9167 234.314 37.25ZM258.525 25.75C259.425 25.75 260.042 27.2667 260.375 30.3C260.042 31.1333 259.492 31.55 258.725 31.55C258.192 31.45 257.659 30.8333 257.125 29.7L256.225 29.4C254.659 29.4 253.242 30.4333 251.975 32.5V32.95C251.975 33.45 254.325 34.2833 259.025 35.45C260.992 36.6167 261.975 38.0333 261.975 39.7C261.975 42.4333 259.775 44.7667 255.375 46.7L253.525 47C250.725 46.7 249.325 45.3 249.325 42.8V42.65C249.325 41.85 249.842 41.3833 250.875 41.25C251.675 41.25 252.209 42.0833 252.475 43.75L252.875 44.05H253.725C255.625 44.05 257.392 42.75 259.025 40.15V39.5C259.025 38.5 256.842 37.5667 252.475 36.7C250.175 35.7667 249.025 34.4667 249.025 32.8C249.025 30.6333 250.842 28.6 254.475 26.7C256.075 26.5 257.425 26.1833 258.525 25.75Z" fill="#C7B7A3"/>
<g clip-path="url(#clip1_179_91)">
<path d="M57 10C59.8457 10 62.5905 10.3633 65.2344 11.0898C67.8783 11.8164 70.3405 12.8659 72.6211 14.2383C74.9017 15.6107 76.9906 17.2253 78.8877 19.082C80.7848 20.9388 82.4095 23.0277 83.7617 25.3486C85.1139 27.6696 86.1533 30.1419 86.8799 32.7656C87.6064 35.3893 87.9798 38.1341 88 41C88 43.8457 87.6367 46.5905 86.9102 49.2344C86.1836 51.8783 85.1341 54.3405 83.7617 56.6211C82.3893 58.9017 80.7747 60.9906 78.918 62.8877C77.0612 64.7848 74.9723 66.4095 72.6514 67.7617C70.3304 69.1139 67.8581 70.1533 65.2344 70.8799C62.6107 71.6064 59.8659 71.9798 57 72C54.1543 72 51.4095 71.6367 48.7656 70.9102C46.1217 70.1836 43.6595 69.1341 41.3789 67.7617C39.0983 66.3893 37.0094 64.7747 35.1123 62.918C33.2152 61.0612 31.5905 58.9723 30.2383 56.6514C28.8861 54.3304 27.8467 51.8581 27.1201 49.2344C26.3936 46.6107 26.0202 43.8659 26 41C26 38.1543 26.3633 35.4095 27.0898 32.7656C27.8164 30.1217 28.8659 27.6595 30.2383 25.3789C31.6107 23.0983 33.2253 21.0094 35.082 19.1123C36.9388 17.2152 39.0277 15.5905 41.3486 14.2383C43.6696 12.8861 46.1419 11.8467 48.7656 11.1201C51.3893 10.3936 54.1341 10.0202 57 10ZM57 57.166C58.554 57.166 60.0576 56.9541 61.5107 56.5303C62.9639 56.1064 64.3363 55.4808 65.6279 54.6533C66.9196 53.8258 68.07 52.8571 69.0791 51.7471C70.0882 50.637 70.9359 49.3656 71.6221 47.9326L66.8994 45.6924C66.4352 46.641 65.86 47.4987 65.1738 48.2656C64.4876 49.0326 63.7106 49.6885 62.8428 50.2334C61.9749 50.7783 61.0465 51.2021 60.0576 51.5049C59.0687 51.8076 58.0495 51.959 57 51.959C55.5469 51.959 54.1644 51.6764 52.8525 51.1113C51.5407 50.5462 50.36 49.7591 49.3105 48.75H53.125V44.875H41.5V56.5H45.375V52.2012C46.8887 53.7754 48.6546 54.9964 50.6729 55.8643C52.6911 56.7321 54.8001 57.166 57 57.166ZM72.5 37.125V25.5H68.625V29.7988C67.1113 28.2246 65.3454 27.0036 63.3271 26.1357C61.3089 25.2679 59.1999 24.834 57 24.834C55.446 24.834 53.9424 25.0459 52.4893 25.4697C51.0361 25.8936 49.6637 26.5192 48.3721 27.3467C47.0804 28.1742 45.93 29.1429 44.9209 30.2529C43.9118 31.363 43.0641 32.6344 42.3779 34.0674L47.1006 36.3076C47.5446 35.359 48.1097 34.5013 48.7959 33.7344C49.4821 32.9674 50.2692 32.3115 51.1572 31.7666C52.0452 31.2217 52.9736 30.7979 53.9424 30.4951C54.9111 30.1924 55.9303 30.041 57 30.041C58.4531 30.041 59.8356 30.3236 61.1475 30.8887C62.4593 31.4538 63.64 32.2409 64.6895 33.25H60.875V37.125H72.5Z" fill="#E6E6E6"/>
</g>
</g>
<defs>
<clipPath id="clip0_179_91">
<rect width="389" height="81" rx="30" fill="white"/>
</clipPath>
<clipPath id="clip1_179_91">
<rect width="62" height="62" fill="white" transform="translate(26 10)"/>
</clipPath>
</defs>
</svg>
